<svg width="32" height="32" viewBox="0 0 32 32" fill="none" xmlns="http://www.w3.org/2000/svg">
<g clip-path="url(#clip0_132_10)">
<path fill-rule="evenodd" clip-rule="evenodd" d="M26.2869 2.48767C28.2024 4.55626 29.1636 5.58723 29.1636 5.58723C22.7112 12.0591 14.733 19.9876 5.21567 29.3727C3.23961 27.3307 2.25159 26.3131 2.25159 26.3131C18.2751 10.4295 26.2869 2.48767 26.2869 2.48767Z" fill="#0072A9"/>
<mask id="mask0_132_10" style="mask-type:luminance" maskUnits="userSpaceOnUse" x="26" y="5" width="6" height="19">
<path d="M26.7977 7.76221C28.3638 6.19248 29.0628 5.47412 29.0628 5.47412C29.0695 5.53398 29.1569 5.52068 29.1636 5.5872C31.0321 17.5797 31.9933 23.7655 31.9933 23.7655C31.9731 23.7456 31.7984 23.8054 31.7782 23.7921C29.2712 21.4043 28.2294 20.6128 28.2294 20.6128C27.322 12.498 26.7977 7.76221 26.7977 7.76221Z" fill="white"/>
</mask>
<g mask="url(#mask0_132_10)">
<path d="M31.8957 4.78011L24.3107 5.80566L26.8901 24.4889L34.4752 23.4633L31.8957 4.78011Z" fill="url(#paint0_linear_132_10)"/>
</g>
<mask id="mask1_132_10" style="mask-type:luminance" maskUnits="userSpaceOnUse" x="5" y="0" width="22" height="33">
<path d="M7.98486 0C6.0693 1.89566 5.10815 2.84681 5.10815 2.84681C17.6097 22.2823 23.8605 32.0066 23.8605 32.0066C25.8635 29.8848 26.8649 28.8206 26.8649 28.8206C14.276 9.60466 7.98486 0 7.98486 0Z" fill="white"/>
</mask>
<g mask="url(#mask1_132_10)">
<path d="M21.6104 -9.22146L-8.73633 7.73486L10.3676 41.2182L40.7143 24.2619L21.6104 -9.22146Z" fill="url(#paint1_linear_132_10)"/>
</g>
<path fill-rule="evenodd" clip-rule="evenodd" d="M7.98486 0C6.0693 1.89566 5.10815 2.84681 5.10815 2.84681C5.10815 2.84681 9.55092 7.32987 18.4364 16.2893C20.7284 18.6905 24.2504 22.1625 29.009 26.7188C28.9082 26.9915 29.9029 26.0071 31.9933 23.7655C24.6872 16.8281 21.1518 13.3494 21.4005 13.3428C12.4545 4.4498 7.98486 0 7.98486 0Z" fill="#002645"/>
<path fill-rule="evenodd" clip-rule="evenodd" d="M23.8605 32C7.95127 16.163 0 8.24113 0 8.24113C0 8.24113 0.940979 7.25007 2.82966 5.26794C2.82966 5.26794 10.8414 13.1166 26.8649 28.8206C24.862 30.9424 23.8605 32.0067 23.8605 32.0067" fill="#0072A9"/>
<path fill-rule="evenodd" clip-rule="evenodd" d="M3.33375 9.29201C1.10901 8.59361 0 8.24109 0 8.24109C1.50557 20.2868 2.25163 26.313 2.25163 26.313C3.85801 27.0846 4.66457 27.4704 4.66457 27.4704C3.77736 15.3515 3.33375 9.29201 3.33375 9.29201Z" fill="#0072A9"/>
</g>
<defs>
<linearGradient id="paint0_linear_132_10" x1="30.586" y1="23.6468" x2="28.4952" y2="8.18296" gradientUnits="userSpaceOnUse">
<stop stop-color="#00172E"/>
<stop offset="1" stop-color="#0072A9"/>
</linearGradient>
<linearGradient id="paint1_linear_132_10" x1="9.22562" y1="3.70863" x2="23.3082" y2="28.9123" gradientUnits="userSpaceOnUse">
<stop stop-color="#002443"/>
<stop offset="1" stop-color="#0073AC"/>
</linearGradient>
<clipPath id="clip0_132_10">
<rect width="32" height="32" fill="white"/>
</clipPath>
</defs>
</svg>
